<svg width="194" height="59" viewBox="0 0 194 59" fill="none" xmlns="http://www.w3.org/2000/svg">
<path d="M17.4777 29.9542C15.3101 29.9542 13.2933 29.5896 11.4275 28.8604C9.58908 28.1031 7.98391 27.0514 6.61198 25.7051C5.26748 24.3308 4.21109 22.7461 3.4428 20.9511C2.70196 19.1281 2.33154 17.1367 2.33154 14.9771C2.33154 12.8175 2.70196 10.8402 3.4428 9.04517C4.21109 7.22211 5.26748 5.63745 6.61198 4.2912C7.98391 2.91689 9.58908 1.86513 11.4275 1.13591C13.2659 0.378635 15.2826 0 17.4777 0C19.6454 0 21.6484 0.378635 23.4868 1.13591C25.3252 1.86513 26.9166 2.90287 28.2611 4.24913C29.6331 5.59538 30.6895 7.18004 31.4303 9.0031C32.1986 10.8262 32.5827 12.8175 32.5827 14.9771C32.5827 17.1367 32.1986 19.1281 31.4303 20.9511C30.6895 22.7742 29.6331 24.3588 28.2611 25.7051C26.9166 27.0514 25.3252 28.1031 23.4868 28.8604C21.6484 29.5896 19.6454 29.9542 17.4777 29.9542ZM17.4777 27.1776C19.2064 27.1776 20.7978 26.8831 22.2521 26.2941C23.7337 25.6771 25.0096 24.8216 26.0798 23.7278C27.1773 22.6059 28.0279 21.3157 28.6316 19.8573C29.2352 18.3708 29.537 16.7441 29.537 14.9771C29.537 13.2102 29.2352 11.5974 28.6316 10.139C28.0279 8.65251 27.1773 7.36235 26.0798 6.26851C25.0096 5.14663 23.7337 4.2912 22.2521 3.70221C20.7978 3.08517 19.2064 2.77666 17.4777 2.77666C15.7491 2.77666 14.1439 3.08517 12.6622 3.70221C11.1805 4.2912 9.8909 5.14663 8.79336 6.26851C7.72324 7.36235 6.87264 8.65251 6.24155 10.139C5.6379 11.5974 5.33608 13.2102 5.33608 14.9771C5.33608 16.716 5.6379 18.3287 6.24155 19.8152C6.87264 21.3017 7.72324 22.6059 8.79336 23.7278C9.8909 24.8216 11.1805 25.6771 12.6622 26.2941C14.1439 26.8831 15.7491 27.1776 17.4777 27.1776Z" fill="white"/>
<path d="M39.4095 29.7018V0.252423H51.1396C54.2127 0.252423 56.9017 0.883481 59.2066 2.1456C61.5388 3.37967 63.3498 5.10456 64.6394 7.32028C65.929 9.53599 66.5738 12.0883 66.5738 14.9771C66.5738 17.866 65.929 20.4182 64.6394 22.634C63.3498 24.8497 61.5388 26.5886 59.2066 27.8507C56.9017 29.0848 54.2127 29.7018 51.1396 29.7018H39.4095ZM42.4552 27.0093H50.9749C53.5267 27.0093 55.7355 26.5044 57.6014 25.4948C59.4947 24.457 60.9626 23.0406 62.0053 21.2456C63.048 19.4226 63.5693 17.3331 63.5693 14.9771C63.5693 12.5931 63.048 10.5036 62.0053 8.7086C60.9626 6.91359 59.4947 5.51124 57.6014 4.50155C55.7355 3.46381 53.5267 2.94494 50.9749 2.94494H42.4552V27.0093Z" fill="white"/>
<path d="M86.0075 29.9542C83.8399 29.9542 81.8231 29.5896 79.9573 28.8604C78.1189 28.1031 76.5137 27.0514 75.1418 25.7051C73.7973 24.3308 72.7409 22.7461 71.9726 20.9511C71.2318 19.1281 70.8614 17.1367 70.8614 14.9771C70.8614 12.8175 71.2318 10.8402 71.9726 9.04517C72.7409 7.22211 73.7973 5.63745 75.1418 4.2912C76.5137 2.91689 78.1189 1.86513 79.9573 1.13591C81.7957 0.378635 83.8124 0 86.0075 0C88.1752 0 90.1782 0.378635 92.0166 1.13591C93.855 1.86513 95.4465 2.90287 96.791 4.24913C98.1629 5.59538 99.2193 7.18004 99.9601 9.0031C100.728 10.8262 101.113 12.8175 101.113 14.9771C101.113 17.1367 100.728 19.1281 99.9601 20.9511C99.2193 22.7742 98.1629 24.3588 96.791 25.7051C95.4465 27.0514 93.855 28.1031 92.0166 28.8604C90.1782 29.5896 88.1752 29.9542 86.0075 29.9542ZM86.0075 27.1776C87.7362 27.1776 89.3276 26.8831 90.7819 26.2941C92.2636 25.6771 93.5395 24.8216 94.6096 23.7278C95.7071 22.6059 96.5577 21.3157 97.1614 19.8573C97.765 18.3708 98.0669 16.7441 98.0669 14.9771C98.0669 13.2102 97.765 11.5974 97.1614 10.139C96.5577 8.65251 95.7071 7.36235 94.6096 6.26851C93.5395 5.14663 92.2636 4.2912 90.7819 3.70221C89.3276 3.08517 87.7362 2.77666 86.0075 2.77666C84.2789 2.77666 82.6737 3.08517 81.192 3.70221C79.7103 4.2912 78.4207 5.14663 77.3232 6.26851C76.2531 7.36235 75.4025 8.65251 74.7714 10.139C74.1677 11.5974 73.8659 13.2102 73.8659 14.9771C73.8659 16.716 74.1677 18.3287 74.7714 19.8152C75.4025 21.3017 76.2531 22.6059 77.3232 23.7278C78.4207 24.8216 79.7103 25.6771 81.192 26.2941C82.6737 26.8831 84.2789 27.1776 86.0075 27.1776Z" fill="white"/>
<path d="M107.939 29.7018V0.252423H110.45L130.329 25.8313H129.012V0.252423H132.017V29.7018H129.506L109.668 4.12291H110.985V29.7018H107.939Z" fill="white"/>
<path d="M147.018 29.7018V2.94494H136.893V0.252423H160.189V2.94494H150.064V29.7018H147.018Z" fill="white"/>
<path d="M177.247 29.9542C175.079 29.9542 173.062 29.5896 171.196 28.8604C169.358 28.1031 167.753 27.0514 166.381 25.7051C165.036 24.3308 163.98 22.7461 163.212 20.9511C162.471 19.1281 162.1 17.1367 162.1 14.9771C162.1 12.8175 162.471 10.8402 163.212 9.04517C163.98 7.22211 165.036 5.63745 166.381 4.2912C167.753 2.91689 169.358 1.86513 171.196 1.13591C173.035 0.378635 175.052 0 177.247 0C179.414 0 181.417 0.378635 183.256 1.13591C185.094 1.86513 186.686 2.90287 188.03 4.24913C189.402 5.59538 190.458 7.18004 191.199 9.0031C191.968 10.8262 192.352 12.8175 192.352 14.9771C192.352 17.1367 191.968 19.1281 191.199 20.9511C190.458 22.7742 189.402 24.3588 188.03 25.7051C186.686 27.0514 185.094 28.1031 183.256 28.8604C181.417 29.5896 179.414 29.9542 177.247 29.9542ZM177.247 27.1776C178.975 27.1776 180.567 26.8831 182.021 26.2941C183.503 25.6771 184.779 24.8216 185.849 23.7278C186.946 22.6059 187.797 21.3157 188.4 19.8573C189.004 18.3708 189.306 16.7441 189.306 14.9771C189.306 13.2102 189.004 11.5974 188.4 10.139C187.797 8.65251 186.946 7.36235 185.849 6.26851C184.779 5.14663 183.503 4.2912 182.021 3.70221C180.567 3.08517 178.975 2.77666 177.247 2.77666C175.518 2.77666 173.913 3.08517 172.431 3.70221C170.949 4.2912 169.66 5.14663 168.562 6.26851C167.492 7.36235 166.642 8.65251 166.011 10.139C165.407 11.5974 165.105 13.2102 165.105 14.9771C165.105 16.716 165.407 18.3287 166.011 19.8152C166.642 21.3017 167.492 22.6059 168.562 23.7278C169.66 24.8216 170.949 25.6771 172.431 26.2941C173.913 26.8831 175.518 27.1776 177.247 27.1776Z" fill="white"/>
<path d="M0.5 54.6812L5.03382 40.8768H6.90523L11.4583 54.6812H9.89562L8.66088 50.8357H3.23959L2.02414 54.6812H0.5ZM3.62544 49.6327H8.27502L5.94058 42.3361L3.62544 49.6327Z" fill="white"/>
<path d="M18.7821 54.6812V45.0576H20.1905V46.6155C20.9107 45.4717 21.9075 44.8998 23.1809 44.8998C23.8625 44.8998 24.4542 45.051 24.9558 45.3534C25.4703 45.6426 25.869 46.0567 26.152 46.5958C26.4478 47.1216 26.5957 47.7396 26.5957 48.4495V54.6812H25.1873V48.8636C25.1873 48.0091 24.9558 47.3386 24.4928 46.8521C24.0426 46.3525 23.4317 46.1027 22.66 46.1027C22.1455 46.1027 21.676 46.2276 21.2516 46.4774C20.8271 46.7272 20.4734 47.0953 20.1905 47.5818V54.6812H18.7821Z" fill="white"/>
<path d="M38.4919 54.8784C37.8102 54.8784 37.1992 54.7535 36.659 54.5037C36.1317 54.2539 35.7201 53.9121 35.4243 53.4782C35.1285 53.0312 34.9806 52.5185 34.9806 51.94C34.9806 51.3616 35.1285 50.8554 35.4243 50.4215C35.733 49.9877 36.1574 49.6525 36.6976 49.4158C37.2507 49.1792 37.8873 49.0608 38.6076 49.0608C39.1735 49.0608 39.7009 49.12 40.1896 49.2383C40.6784 49.3435 41.1414 49.5276 41.5787 49.7905V48.6861C41.5787 47.8316 41.3665 47.1874 40.942 46.7535C40.5176 46.3197 39.8874 46.1027 39.0513 46.1027C38.5755 46.1027 38.0996 46.1751 37.6237 46.3197C37.1478 46.4511 36.614 46.6878 36.0224 47.0296L35.4436 45.945C36.1253 45.5637 36.7748 45.2942 37.3922 45.1364C38.0095 44.9787 38.6205 44.8998 39.225 44.8998C40.4211 44.8998 41.3408 45.2087 41.9839 45.8267C42.6398 46.4446 42.9678 47.332 42.9678 48.4889V54.6812H41.5787V53.5768C41.1414 54.0238 40.6655 54.3525 40.151 54.5629C39.6494 54.7732 39.0964 54.8784 38.4919 54.8784ZM36.3311 51.9006C36.3311 52.4659 36.5561 52.9195 37.0063 53.2613C37.4565 53.6031 38.0481 53.774 38.7812 53.774C39.3343 53.774 39.8359 53.6886 40.2861 53.5177C40.7491 53.3336 41.18 53.0444 41.5787 52.65V50.7962C41.18 50.5464 40.7555 50.369 40.3054 50.2638C39.8552 50.1586 39.36 50.106 38.8198 50.106C38.0738 50.106 37.4693 50.2704 37.0063 50.599C36.5561 50.9277 36.3311 51.3616 36.3311 51.9006Z" fill="white"/>
<path d="M57.5649 54.8784C56.5103 54.8784 55.7 54.6483 55.134 54.1882C54.581 53.7149 54.3045 53.0312 54.3045 52.1372V46.2408H51.0825V45.0576H54.3045V42.415L55.7128 42.0797V45.0576H60.0537V46.2408H55.7128V51.9006C55.7128 52.5054 55.8736 52.9392 56.1952 53.2021C56.5167 53.4651 56.9797 53.5966 57.5842 53.5966C57.9572 53.5966 58.3431 53.5571 58.7418 53.4782C59.1405 53.3994 59.5778 53.2679 60.0537 53.0838V54.3854C59.6293 54.5431 59.2113 54.6615 58.7997 54.7404C58.3881 54.8324 57.9765 54.8784 57.5649 54.8784Z" fill="white"/>
<path d="M72.8181 54.8981C71.9177 54.8981 71.0753 54.622 70.2907 54.0699C69.519 53.5177 68.8952 52.7157 68.4193 51.6639C67.9434 50.599 67.7055 49.3041 67.7055 47.779C67.7055 46.2539 67.9434 44.9655 68.4193 43.9138C68.8952 42.8489 69.519 42.0403 70.2907 41.4881C71.0753 40.936 71.9177 40.6599 72.8181 40.6599C73.6026 40.6599 74.3165 40.8308 74.9596 41.1726C75.6027 41.5013 76.1557 41.9811 76.6188 42.6122C77.0818 43.2433 77.4355 44.0058 77.6799 44.8998L76.2715 45.3534C76.0142 44.2885 75.5705 43.4733 74.9403 42.908C74.3229 42.3295 73.6155 42.0403 72.8181 42.0403C72.1492 42.0403 71.5383 42.2704 70.9852 42.7305C70.445 43.1775 70.0142 43.8283 69.6926 44.6829C69.3711 45.5374 69.2103 46.5695 69.2103 47.779C69.2103 48.9885 69.3711 50.0206 69.6926 50.8751C70.0142 51.7297 70.445 52.387 70.9852 52.8472C71.5383 53.2942 72.1492 53.5177 72.8181 53.5177C73.6155 53.5177 74.3229 53.235 74.9403 52.6697C75.5705 52.0912 76.0142 51.2695 76.2715 50.2046L77.6799 50.6582C77.4355 51.539 77.0818 52.3016 76.6188 52.9458C76.1557 53.5768 75.6027 54.0633 74.9596 54.4051C74.3165 54.7338 73.6026 54.8981 72.8181 54.8981Z" fill="white"/>
<path d="M85.5052 54.6812V40.4429L86.9136 40.1471V46.6155C87.6339 45.4717 88.6307 44.8998 89.904 44.8998C90.5857 44.8998 91.1773 45.051 91.6789 45.3534C92.1934 45.6426 92.5921 46.0567 92.8751 46.5958C93.1709 47.1216 93.3188 47.7396 93.3188 48.4495V54.6812H91.9104V48.8636C91.9104 48.0091 91.6789 47.3386 91.2159 46.8521C90.7657 46.3525 90.1548 46.1027 89.3831 46.1027C88.8686 46.1027 88.3992 46.2276 87.9747 46.4774C87.5503 46.7272 87.1966 47.0953 86.9136 47.5818V54.6812H85.5052Z" fill="white"/>
<path d="M105.215 54.8784C104.533 54.8784 103.922 54.7535 103.382 54.5037C102.855 54.2539 102.443 53.9121 102.147 53.4782C101.852 53.0312 101.704 52.5185 101.704 51.94C101.704 51.3616 101.852 50.8554 102.147 50.4215C102.456 49.9877 102.881 49.6525 103.421 49.4158C103.974 49.1792 104.61 49.0608 105.331 49.0608C105.897 49.0608 106.424 49.12 106.913 49.2383C107.402 49.3435 107.865 49.5276 108.302 49.7905V48.6861C108.302 47.8316 108.09 47.1874 107.665 46.7535C107.241 46.3197 106.61 46.1027 105.774 46.1027C105.299 46.1027 104.823 46.1751 104.347 46.3197C103.871 46.4511 103.337 46.6878 102.745 47.0296L102.167 45.945C102.848 45.5637 103.498 45.2942 104.115 45.1364C104.733 44.9787 105.344 44.8998 105.948 44.8998C107.144 44.8998 108.064 45.2087 108.707 45.8267C109.363 46.4446 109.691 47.332 109.691 48.4889V54.6812H108.302V53.5768C107.865 54.0238 107.389 54.3525 106.874 54.5629C106.373 54.7732 105.819 54.8784 105.215 54.8784ZM103.054 51.9006C103.054 52.4659 103.279 52.9195 103.729 53.2613C104.18 53.6031 104.771 53.774 105.504 53.774C106.057 53.774 106.559 53.6886 107.009 53.5177C107.472 53.3336 107.903 53.0444 108.302 52.65V50.7962C107.903 50.5464 107.479 50.369 107.029 50.2638C106.578 50.1586 106.083 50.106 105.543 50.106C104.797 50.106 104.192 50.2704 103.729 50.599C103.279 50.9277 103.054 51.3616 103.054 51.9006Z" fill="white"/>
<path d="M124.963 54.8784C123.973 54.8784 123.214 54.6418 122.687 54.1685C122.159 53.6952 121.896 52.9852 121.896 52.0386V41.5276H118.404V40.3443H123.304V51.9006C123.304 52.5054 123.446 52.9392 123.729 53.2021C124.012 53.4651 124.43 53.5966 124.983 53.5966C125.317 53.5966 125.658 53.5637 126.005 53.498C126.352 53.4191 126.738 53.2942 127.163 53.1233V54.4248C126.79 54.5563 126.417 54.6615 126.044 54.7404C125.684 54.8324 125.323 54.8784 124.963 54.8784Z" fill="white"/>
<path d="M141.644 54.8784C140.654 54.8784 139.895 54.6418 139.368 54.1685C138.84 53.6952 138.577 52.9852 138.577 52.0386V41.5276H135.085V40.3443H139.985V51.9006C139.985 52.5054 140.126 52.9392 140.409 53.2021C140.692 53.4651 141.11 53.5966 141.663 53.5966C141.998 53.5966 142.339 53.5637 142.686 53.498C143.033 53.4191 143.419 53.2942 143.843 53.1233V54.4248C143.471 54.5563 143.098 54.6615 142.725 54.7404C142.364 54.8324 142.004 54.8784 141.644 54.8784Z" fill="white"/>
<path d="M156.338 54.8784C155.437 54.8784 154.627 54.6615 153.907 54.2276C153.187 53.7806 152.614 53.1824 152.19 52.433C151.778 51.6705 151.572 50.816 151.572 49.8694C151.572 48.9228 151.772 48.0748 152.17 47.3254C152.569 46.576 153.109 45.9844 153.791 45.5506C154.486 45.1167 155.257 44.8998 156.106 44.8998C156.994 44.8998 157.785 45.1167 158.479 45.5506C159.174 45.9713 159.72 46.5497 160.119 47.286C160.518 48.0091 160.717 48.8308 160.717 49.7511V50.1849H152.942C152.994 50.8423 153.174 51.4339 153.482 51.9598C153.791 52.4725 154.196 52.88 154.698 53.1824C155.212 53.4717 155.778 53.6163 156.396 53.6163C156.949 53.6163 157.463 53.5111 157.939 53.3008C158.428 53.0773 158.833 52.7749 159.154 52.3936L160.138 53.281C159.637 53.8069 159.064 54.2079 158.421 54.484C157.778 54.7469 157.084 54.8784 156.338 54.8784ZM152.981 49.12H159.328C159.251 48.5415 159.058 48.0288 158.749 47.5818C158.454 47.1348 158.074 46.7864 157.611 46.5366C157.161 46.2737 156.653 46.1422 156.087 46.1422C155.56 46.1422 155.077 46.2671 154.64 46.5169C154.203 46.7667 153.836 47.1151 153.54 47.5621C153.257 48.0091 153.071 48.5284 152.981 49.12Z" fill="white"/>
<path d="M168.909 54.6812V45.0576H170.318V46.6155C171.038 45.4717 172.035 44.8998 173.308 44.8998C173.99 44.8998 174.581 45.051 175.083 45.3534C175.597 45.6426 175.996 46.0567 176.279 46.5958C176.575 47.1216 176.723 47.7396 176.723 48.4495V54.6812H175.314V48.8636C175.314 48.0091 175.083 47.3386 174.62 46.8521C174.17 46.3525 173.559 46.1027 172.787 46.1027C172.273 46.1027 171.803 46.2276 171.379 46.4774C170.954 46.7272 170.6 47.0953 170.318 47.5818V54.6812H168.909Z" fill="white"/>
<path d="M189.526 59C188.895 59 188.259 58.908 187.616 58.7239C186.985 58.553 186.4 58.3098 185.86 57.9942L186.458 56.8899C187.037 57.1923 187.564 57.4158 188.04 57.5604C188.516 57.705 188.992 57.7773 189.468 57.7773C191.217 57.7773 192.092 56.9556 192.092 55.3123V53.3796C191.731 53.8398 191.294 54.1948 190.78 54.4445C190.265 54.6812 189.699 54.7995 189.082 54.7995C188.272 54.7995 187.539 54.5826 186.883 54.1487C186.227 53.7017 185.706 53.1101 185.32 52.3739C184.934 51.6245 184.741 50.7897 184.741 49.8694C184.741 48.9491 184.934 48.1208 185.32 47.3846C185.719 46.6352 186.252 46.0436 186.921 45.6097C187.59 45.1627 188.336 44.9392 189.159 44.9392C189.751 44.9392 190.297 45.0576 190.799 45.2942C191.301 45.5177 191.738 45.8529 192.111 46.2999V45.0576H193.5V55.2925C193.5 56.4889 193.159 57.4026 192.477 58.0337C191.796 58.6779 190.812 59 189.526 59ZM189.429 53.5571C189.982 53.5571 190.49 53.4454 190.953 53.2219C191.416 52.9852 191.796 52.6631 192.092 52.2556V47.5029C191.783 47.0953 191.391 46.7798 190.915 46.5563C190.452 46.3197 189.957 46.2014 189.429 46.2014C188.799 46.2014 188.233 46.3591 187.731 46.6746C187.243 46.9902 186.85 47.424 186.555 47.9762C186.272 48.5284 186.13 49.1594 186.13 49.8694C186.13 50.5662 186.272 51.1972 186.555 51.7625C186.85 52.3147 187.243 52.7552 187.731 53.0838C188.233 53.3994 188.799 53.5571 189.429 53.5571Z" fill="white"/>
</svg>
